<mxfile host="app.diagrams.net" modified="2023-11-05T21:55:14.127Z" agent="Mozilla/5.0 (Windows NT 10.0; Win64; x64) AppleWebKit/537.36 (KHTML, like Gecko) Chrome/119.0.0.0 Safari/537.36" etag="8ssmrXSL3uz0WgJVsnJR" version="22.0.8" type="device">
  <diagram name="Page-1" id="t45h5Vx1E8hnnQfGSe_M">
    <mxGraphModel dx="1219" dy="1100" grid="1" gridSize="10" guides="1" tooltips="1" connect="1" arrows="1" fold="1" page="1" pageScale="1" pageWidth="850" pageHeight="1100" math="0" shadow="0">
      <root>
        <mxCell id="0" />
        <mxCell id="1" parent="0" />
        <mxCell id="5-BZjypIEKcRVEe4DaxC-1" value="&lt;b&gt;&lt;font style=&quot;font-size: 13px;&quot;&gt;Social Media App: State Diagram&lt;/font&gt;&lt;/b&gt;" style="shape=umlFrame;whiteSpace=wrap;html=1;pointerEvents=0;width=290;height=40;" vertex="1" parent="1">
          <mxGeometry width="850" height="1070" as="geometry" />
        </mxCell>
        <mxCell id="5-BZjypIEKcRVEe4DaxC-10" style="edgeStyle=orthogonalEdgeStyle;rounded=0;orthogonalLoop=1;jettySize=auto;html=1;entryX=0;entryY=0.5;entryDx=0;entryDy=0;exitX=0.652;exitY=1.003;exitDx=0;exitDy=0;exitPerimeter=0;endArrow=open;endFill=0;" edge="1" parent="1" source="5-BZjypIEKcRVEe4DaxC-16" target="5-BZjypIEKcRVEe4DaxC-9">
          <mxGeometry relative="1" as="geometry">
            <mxPoint x="435" y="970" as="sourcePoint" />
          </mxGeometry>
        </mxCell>
        <mxCell id="5-BZjypIEKcRVEe4DaxC-5" value="" style="ellipse;html=1;shape=startState;fillColor=#000000;strokeColor=#ff0000;" vertex="1" parent="1">
          <mxGeometry x="10" y="100" width="50" height="50" as="geometry" />
        </mxCell>
        <mxCell id="5-BZjypIEKcRVEe4DaxC-7" value="Login" style="text;html=1;align=center;verticalAlign=middle;resizable=0;points=[];autosize=1;strokeColor=none;fillColor=none;fontStyle=1;fontSize=14;" vertex="1" parent="1">
          <mxGeometry x="5" y="70" width="60" height="30" as="geometry" />
        </mxCell>
        <mxCell id="5-BZjypIEKcRVEe4DaxC-8" style="edgeStyle=orthogonalEdgeStyle;rounded=0;orthogonalLoop=1;jettySize=auto;html=1;exitX=0.5;exitY=1;exitDx=0;exitDy=0;entryX=0;entryY=0;entryDx=0;entryDy=225;entryPerimeter=0;endArrow=open;endFill=0;" edge="1" parent="1" source="5-BZjypIEKcRVEe4DaxC-5" target="5-BZjypIEKcRVEe4DaxC-16">
          <mxGeometry relative="1" as="geometry">
            <mxPoint x="70" y="391.9000000000001" as="targetPoint" />
          </mxGeometry>
        </mxCell>
        <mxCell id="5-BZjypIEKcRVEe4DaxC-9" value="" style="ellipse;html=1;shape=endState;fillColor=#000000;strokeColor=#ff0000;" vertex="1" parent="1">
          <mxGeometry x="770" y="1010" width="50" height="50" as="geometry" />
        </mxCell>
        <mxCell id="5-BZjypIEKcRVEe4DaxC-11" value="Logout" style="text;html=1;align=center;verticalAlign=middle;resizable=0;points=[];autosize=1;strokeColor=none;fillColor=none;fontStyle=1;fontSize=14;" vertex="1" parent="1">
          <mxGeometry x="485" y="1010" width="70" height="30" as="geometry" />
        </mxCell>
        <mxCell id="5-BZjypIEKcRVEe4DaxC-16" value="UserLoggedIn" style="shape=folder;align=center;verticalAlign=middle;fontStyle=0;tabWidth=100;tabHeight=30;tabPosition=left;html=1;boundedLbl=1;labelInHeader=1;rounded=1;absoluteArcSize=1;arcSize=10;whiteSpace=wrap;" vertex="1" parent="1">
          <mxGeometry x="80" y="100" width="750" height="900" as="geometry" />
        </mxCell>
        <mxCell id="5-BZjypIEKcRVEe4DaxC-18" value="" style="ellipse;html=1;shape=startState;fillColor=#000000;strokeColor=#ff0000;" vertex="1" parent="1">
          <mxGeometry x="110" y="150" width="30" height="30" as="geometry" />
        </mxCell>
        <mxCell id="5-BZjypIEKcRVEe4DaxC-19" value="" style="html=1;verticalAlign=bottom;endArrow=open;endSize=8;strokeColor=#ff0000;rounded=0;entryX=0;entryY=0;entryDx=0;entryDy=0;" edge="1" source="5-BZjypIEKcRVEe4DaxC-18" parent="1" target="5-BZjypIEKcRVEe4DaxC-20">
          <mxGeometry relative="1" as="geometry">
            <mxPoint x="125" y="240" as="targetPoint" />
          </mxGeometry>
        </mxCell>
        <mxCell id="5-BZjypIEKcRVEe4DaxC-22" value="" style="edgeStyle=orthogonalEdgeStyle;rounded=0;orthogonalLoop=1;jettySize=auto;html=1;endArrow=open;endFill=0;" edge="1" parent="1" source="5-BZjypIEKcRVEe4DaxC-20" target="5-BZjypIEKcRVEe4DaxC-21">
          <mxGeometry relative="1" as="geometry" />
        </mxCell>
        <mxCell id="5-BZjypIEKcRVEe4DaxC-27" value="" style="edgeStyle=orthogonalEdgeStyle;rounded=0;orthogonalLoop=1;jettySize=auto;html=1;endArrow=open;endFill=0;" edge="1" parent="1" source="5-BZjypIEKcRVEe4DaxC-20" target="5-BZjypIEKcRVEe4DaxC-26">
          <mxGeometry relative="1" as="geometry" />
        </mxCell>
        <mxCell id="5-BZjypIEKcRVEe4DaxC-20" value="DisplayUserInfo" style="html=1;align=center;verticalAlign=top;rounded=1;absoluteArcSize=1;arcSize=10;dashed=0;whiteSpace=wrap;" vertex="1" parent="1">
          <mxGeometry x="150" y="230" width="140" height="40" as="geometry" />
        </mxCell>
        <mxCell id="5-BZjypIEKcRVEe4DaxC-23" style="edgeStyle=orthogonalEdgeStyle;rounded=1;orthogonalLoop=1;jettySize=auto;html=1;exitX=0.75;exitY=0;exitDx=0;exitDy=0;entryX=0.75;entryY=0;entryDx=0;entryDy=0;" edge="1" parent="1" source="5-BZjypIEKcRVEe4DaxC-21" target="5-BZjypIEKcRVEe4DaxC-20">
          <mxGeometry relative="1" as="geometry">
            <Array as="points">
              <mxPoint x="475" y="200" />
              <mxPoint x="255" y="200" />
            </Array>
          </mxGeometry>
        </mxCell>
        <mxCell id="5-BZjypIEKcRVEe4DaxC-21" value="UpdateAccount" style="html=1;align=center;verticalAlign=top;rounded=1;absoluteArcSize=1;arcSize=10;dashed=0;whiteSpace=wrap;" vertex="1" parent="1">
          <mxGeometry x="370" y="230" width="140" height="40" as="geometry" />
        </mxCell>
        <mxCell id="5-BZjypIEKcRVEe4DaxC-29" value="" style="edgeStyle=orthogonalEdgeStyle;rounded=0;orthogonalLoop=1;jettySize=auto;html=1;endArrow=open;endFill=0;" edge="1" parent="1" source="5-BZjypIEKcRVEe4DaxC-26" target="5-BZjypIEKcRVEe4DaxC-28">
          <mxGeometry relative="1" as="geometry" />
        </mxCell>
        <mxCell id="5-BZjypIEKcRVEe4DaxC-45" value="" style="edgeStyle=orthogonalEdgeStyle;rounded=0;orthogonalLoop=1;jettySize=auto;html=1;endArrow=open;endFill=0;" edge="1" parent="1" source="5-BZjypIEKcRVEe4DaxC-26" target="5-BZjypIEKcRVEe4DaxC-44">
          <mxGeometry relative="1" as="geometry" />
        </mxCell>
        <mxCell id="5-BZjypIEKcRVEe4DaxC-26" value="" style="rhombus;whiteSpace=wrap;html=1;verticalAlign=top;rounded=1;arcSize=10;dashed=0;fillColor=#ffe6cc;strokeColor=#d79b00;" vertex="1" parent="1">
          <mxGeometry x="180" y="330" width="80" height="80" as="geometry" />
        </mxCell>
        <mxCell id="5-BZjypIEKcRVEe4DaxC-31" value="" style="edgeStyle=orthogonalEdgeStyle;rounded=0;orthogonalLoop=1;jettySize=auto;html=1;endArrow=open;endFill=0;" edge="1" parent="1" source="5-BZjypIEKcRVEe4DaxC-28" target="5-BZjypIEKcRVEe4DaxC-30">
          <mxGeometry relative="1" as="geometry" />
        </mxCell>
        <mxCell id="5-BZjypIEKcRVEe4DaxC-28" value="displayFollowers" style="whiteSpace=wrap;html=1;verticalAlign=top;rounded=1;arcSize=10;dashed=0;" vertex="1" parent="1">
          <mxGeometry x="320" y="347.5" width="120" height="45" as="geometry" />
        </mxCell>
        <mxCell id="5-BZjypIEKcRVEe4DaxC-33" value="" style="edgeStyle=orthogonalEdgeStyle;rounded=0;orthogonalLoop=1;jettySize=auto;html=1;endArrow=open;endFill=0;" edge="1" parent="1" source="5-BZjypIEKcRVEe4DaxC-30" target="5-BZjypIEKcRVEe4DaxC-32">
          <mxGeometry relative="1" as="geometry" />
        </mxCell>
        <mxCell id="5-BZjypIEKcRVEe4DaxC-35" value="" style="edgeStyle=orthogonalEdgeStyle;rounded=0;orthogonalLoop=1;jettySize=auto;html=1;endArrow=open;endFill=0;" edge="1" parent="1" source="5-BZjypIEKcRVEe4DaxC-30" target="5-BZjypIEKcRVEe4DaxC-34">
          <mxGeometry relative="1" as="geometry" />
        </mxCell>
        <mxCell id="5-BZjypIEKcRVEe4DaxC-30" value="" style="rhombus;whiteSpace=wrap;html=1;verticalAlign=top;rounded=1;arcSize=10;dashed=0;fillColor=#ffe6cc;strokeColor=#d79b00;" vertex="1" parent="1">
          <mxGeometry x="350" y="450" width="60" height="55" as="geometry" />
        </mxCell>
        <mxCell id="5-BZjypIEKcRVEe4DaxC-42" style="edgeStyle=orthogonalEdgeStyle;rounded=0;orthogonalLoop=1;jettySize=auto;html=1;exitX=0.5;exitY=0;exitDx=0;exitDy=0;endArrow=open;endFill=0;" edge="1" parent="1" source="5-BZjypIEKcRVEe4DaxC-32">
          <mxGeometry relative="1" as="geometry">
            <mxPoint x="520" y="370" as="targetPoint" />
          </mxGeometry>
        </mxCell>
        <mxCell id="5-BZjypIEKcRVEe4DaxC-32" value="Unfollow" style="whiteSpace=wrap;html=1;verticalAlign=top;rounded=1;arcSize=10;dashed=0;" vertex="1" parent="1">
          <mxGeometry x="460" y="447.5" width="120" height="60" as="geometry" />
        </mxCell>
        <mxCell id="5-BZjypIEKcRVEe4DaxC-37" value="" style="edgeStyle=orthogonalEdgeStyle;rounded=0;orthogonalLoop=1;jettySize=auto;html=1;endArrow=open;endFill=0;" edge="1" parent="1" source="5-BZjypIEKcRVEe4DaxC-34" target="5-BZjypIEKcRVEe4DaxC-36">
          <mxGeometry relative="1" as="geometry" />
        </mxCell>
        <mxCell id="5-BZjypIEKcRVEe4DaxC-38" style="edgeStyle=orthogonalEdgeStyle;rounded=1;orthogonalLoop=1;jettySize=auto;html=1;exitX=0.5;exitY=1;exitDx=0;exitDy=0;entryX=1;entryY=0.5;entryDx=0;entryDy=0;endArrow=open;endFill=0;" edge="1" parent="1" source="5-BZjypIEKcRVEe4DaxC-34" target="5-BZjypIEKcRVEe4DaxC-28">
          <mxGeometry relative="1" as="geometry">
            <Array as="points">
              <mxPoint x="380" y="608" />
              <mxPoint x="690" y="608" />
              <mxPoint x="690" y="370" />
            </Array>
          </mxGeometry>
        </mxCell>
        <mxCell id="5-BZjypIEKcRVEe4DaxC-39" value="Update" style="edgeLabel;html=1;align=center;verticalAlign=middle;resizable=0;points=[];" vertex="1" connectable="0" parent="5-BZjypIEKcRVEe4DaxC-38">
          <mxGeometry x="-0.598" y="1" relative="1" as="geometry">
            <mxPoint as="offset" />
          </mxGeometry>
        </mxCell>
        <mxCell id="5-BZjypIEKcRVEe4DaxC-43" value="Update" style="edgeLabel;html=1;align=center;verticalAlign=middle;resizable=0;points=[];" vertex="1" connectable="0" parent="5-BZjypIEKcRVEe4DaxC-38">
          <mxGeometry x="0.653" relative="1" as="geometry">
            <mxPoint as="offset" />
          </mxGeometry>
        </mxCell>
        <mxCell id="5-BZjypIEKcRVEe4DaxC-34" value="Follow" style="whiteSpace=wrap;html=1;verticalAlign=top;rounded=1;arcSize=10;dashed=0;" vertex="1" parent="1">
          <mxGeometry x="320" y="550" width="120" height="37.5" as="geometry" />
        </mxCell>
        <mxCell id="5-BZjypIEKcRVEe4DaxC-41" style="edgeStyle=orthogonalEdgeStyle;rounded=0;orthogonalLoop=1;jettySize=auto;html=1;exitX=1;exitY=0.5;exitDx=0;exitDy=0;endArrow=open;endFill=0;" edge="1" parent="1" source="5-BZjypIEKcRVEe4DaxC-36">
          <mxGeometry relative="1" as="geometry">
            <mxPoint x="690" y="569" as="targetPoint" />
          </mxGeometry>
        </mxCell>
        <mxCell id="5-BZjypIEKcRVEe4DaxC-36" value="Add" style="whiteSpace=wrap;html=1;verticalAlign=top;rounded=1;arcSize=10;dashed=0;" vertex="1" parent="1">
          <mxGeometry x="520" y="550" width="120" height="37.5" as="geometry" />
        </mxCell>
        <mxCell id="5-BZjypIEKcRVEe4DaxC-47" value="" style="edgeStyle=orthogonalEdgeStyle;rounded=0;orthogonalLoop=1;jettySize=auto;html=1;endArrow=open;endFill=0;" edge="1" parent="1" source="5-BZjypIEKcRVEe4DaxC-44" target="5-BZjypIEKcRVEe4DaxC-46">
          <mxGeometry relative="1" as="geometry" />
        </mxCell>
        <mxCell id="5-BZjypIEKcRVEe4DaxC-44" value="PostList" style="whiteSpace=wrap;html=1;verticalAlign=top;rounded=1;arcSize=10;dashed=0;" vertex="1" parent="1">
          <mxGeometry x="160" y="500" width="120" height="40" as="geometry" />
        </mxCell>
        <mxCell id="5-BZjypIEKcRVEe4DaxC-51" style="edgeStyle=orthogonalEdgeStyle;rounded=1;orthogonalLoop=1;jettySize=auto;html=1;exitX=0;exitY=0.5;exitDx=0;exitDy=0;entryX=0.5;entryY=1;entryDx=0;entryDy=0;endArrow=open;endFill=0;" edge="1" parent="1" source="5-BZjypIEKcRVEe4DaxC-46" target="5-BZjypIEKcRVEe4DaxC-48">
          <mxGeometry relative="1" as="geometry" />
        </mxCell>
        <mxCell id="5-BZjypIEKcRVEe4DaxC-53" value="" style="edgeStyle=orthogonalEdgeStyle;rounded=1;orthogonalLoop=1;jettySize=auto;html=1;endArrow=open;endFill=0;" edge="1" parent="1" source="5-BZjypIEKcRVEe4DaxC-46" target="5-BZjypIEKcRVEe4DaxC-52">
          <mxGeometry relative="1" as="geometry" />
        </mxCell>
        <mxCell id="5-BZjypIEKcRVEe4DaxC-57" value="" style="edgeStyle=orthogonalEdgeStyle;rounded=0;orthogonalLoop=1;jettySize=auto;html=1;endArrow=open;endFill=0;" edge="1" parent="1" source="5-BZjypIEKcRVEe4DaxC-46" target="5-BZjypIEKcRVEe4DaxC-56">
          <mxGeometry relative="1" as="geometry" />
        </mxCell>
        <mxCell id="5-BZjypIEKcRVEe4DaxC-46" value="" style="rhombus;whiteSpace=wrap;html=1;verticalAlign=top;rounded=1;arcSize=8;dashed=0;fillColor=#ffe6cc;strokeColor=#d79b00;" vertex="1" parent="1">
          <mxGeometry x="180" y="610" width="80" height="80" as="geometry" />
        </mxCell>
        <mxCell id="5-BZjypIEKcRVEe4DaxC-48" value="AddPost" style="whiteSpace=wrap;html=1;verticalAlign=top;rounded=1;arcSize=8;dashed=0;" vertex="1" parent="1">
          <mxGeometry x="90" y="600" width="80" height="30" as="geometry" />
        </mxCell>
        <mxCell id="5-BZjypIEKcRVEe4DaxC-50" style="edgeStyle=orthogonalEdgeStyle;rounded=1;orthogonalLoop=1;jettySize=auto;html=1;entryX=0;entryY=0.5;entryDx=0;entryDy=0;endArrow=open;endFill=0;" edge="1" parent="1" source="5-BZjypIEKcRVEe4DaxC-48" target="5-BZjypIEKcRVEe4DaxC-44">
          <mxGeometry relative="1" as="geometry" />
        </mxCell>
        <mxCell id="5-BZjypIEKcRVEe4DaxC-54" style="edgeStyle=orthogonalEdgeStyle;rounded=1;orthogonalLoop=1;jettySize=auto;html=1;exitX=0.5;exitY=0;exitDx=0;exitDy=0;entryX=0.75;entryY=1;entryDx=0;entryDy=0;endArrow=open;endFill=0;" edge="1" parent="1" source="5-BZjypIEKcRVEe4DaxC-52" target="5-BZjypIEKcRVEe4DaxC-44">
          <mxGeometry relative="1" as="geometry" />
        </mxCell>
        <mxCell id="5-BZjypIEKcRVEe4DaxC-52" value="DeletePost" style="whiteSpace=wrap;html=1;verticalAlign=top;rounded=1;arcSize=8;dashed=0;" vertex="1" parent="1">
          <mxGeometry x="300" y="650" width="120" height="30" as="geometry" />
        </mxCell>
        <mxCell id="5-BZjypIEKcRVEe4DaxC-59" value="" style="edgeStyle=orthogonalEdgeStyle;rounded=0;orthogonalLoop=1;jettySize=auto;html=1;endArrow=open;endFill=0;" edge="1" parent="1" source="5-BZjypIEKcRVEe4DaxC-56" target="5-BZjypIEKcRVEe4DaxC-58">
          <mxGeometry relative="1" as="geometry" />
        </mxCell>
        <mxCell id="5-BZjypIEKcRVEe4DaxC-56" value="DisplayPost" style="whiteSpace=wrap;html=1;verticalAlign=top;rounded=1;arcSize=8;dashed=0;" vertex="1" parent="1">
          <mxGeometry x="160" y="770" width="120" height="40" as="geometry" />
        </mxCell>
        <mxCell id="5-BZjypIEKcRVEe4DaxC-61" value="" style="edgeStyle=orthogonalEdgeStyle;rounded=0;orthogonalLoop=1;jettySize=auto;html=1;endArrow=open;endFill=0;" edge="1" parent="1" source="5-BZjypIEKcRVEe4DaxC-58" target="5-BZjypIEKcRVEe4DaxC-60">
          <mxGeometry relative="1" as="geometry" />
        </mxCell>
        <mxCell id="5-BZjypIEKcRVEe4DaxC-58" value="Like" style="whiteSpace=wrap;html=1;verticalAlign=top;rounded=1;arcSize=8;dashed=0;" vertex="1" parent="1">
          <mxGeometry x="160" y="840" width="120" height="30" as="geometry" />
        </mxCell>
        <mxCell id="5-BZjypIEKcRVEe4DaxC-63" value="" style="edgeStyle=orthogonalEdgeStyle;rounded=0;orthogonalLoop=1;jettySize=auto;html=1;endArrow=open;endFill=0;" edge="1" parent="1" source="5-BZjypIEKcRVEe4DaxC-60" target="5-BZjypIEKcRVEe4DaxC-62">
          <mxGeometry relative="1" as="geometry" />
        </mxCell>
        <mxCell id="5-BZjypIEKcRVEe4DaxC-60" value="NewComment" style="whiteSpace=wrap;html=1;verticalAlign=top;rounded=1;arcSize=8;dashed=0;" vertex="1" parent="1">
          <mxGeometry x="160" y="890" width="120" height="30" as="geometry" />
        </mxCell>
        <mxCell id="5-BZjypIEKcRVEe4DaxC-64" style="edgeStyle=orthogonalEdgeStyle;rounded=1;orthogonalLoop=1;jettySize=auto;html=1;exitX=1;exitY=0.5;exitDx=0;exitDy=0;entryX=1;entryY=0.25;entryDx=0;entryDy=0;endArrow=open;endFill=0;" edge="1" parent="1" source="5-BZjypIEKcRVEe4DaxC-62" target="5-BZjypIEKcRVEe4DaxC-56">
          <mxGeometry relative="1" as="geometry">
            <Array as="points">
              <mxPoint x="410" y="965" />
              <mxPoint x="410" y="780" />
            </Array>
          </mxGeometry>
        </mxCell>
        <mxCell id="5-BZjypIEKcRVEe4DaxC-62" value="ForwardPost" style="whiteSpace=wrap;html=1;verticalAlign=top;rounded=1;arcSize=8;dashed=0;" vertex="1" parent="1">
          <mxGeometry x="160" y="950" width="120" height="30" as="geometry" />
        </mxCell>
        <mxCell id="5-BZjypIEKcRVEe4DaxC-65" value="" style="endArrow=none;html=1;rounded=0;" edge="1" parent="1">
          <mxGeometry width="50" height="50" relative="1" as="geometry">
            <mxPoint x="220" y="820" as="sourcePoint" />
            <mxPoint x="410" y="820" as="targetPoint" />
          </mxGeometry>
        </mxCell>
        <mxCell id="5-BZjypIEKcRVEe4DaxC-66" value="No Like" style="edgeLabel;html=1;align=center;verticalAlign=middle;resizable=0;points=[];" vertex="1" connectable="0" parent="5-BZjypIEKcRVEe4DaxC-65">
          <mxGeometry x="-0.0632" y="2" relative="1" as="geometry">
            <mxPoint as="offset" />
          </mxGeometry>
        </mxCell>
        <mxCell id="5-BZjypIEKcRVEe4DaxC-72" value="" style="endArrow=none;html=1;rounded=0;" edge="1" parent="1">
          <mxGeometry width="50" height="50" relative="1" as="geometry">
            <mxPoint x="220" y="880" as="sourcePoint" />
            <mxPoint x="410" y="880" as="targetPoint" />
          </mxGeometry>
        </mxCell>
        <mxCell id="5-BZjypIEKcRVEe4DaxC-73" value="No Comment" style="edgeLabel;html=1;align=center;verticalAlign=middle;resizable=0;points=[];" vertex="1" connectable="0" parent="5-BZjypIEKcRVEe4DaxC-72">
          <mxGeometry x="-0.0316" relative="1" as="geometry">
            <mxPoint as="offset" />
          </mxGeometry>
        </mxCell>
        <mxCell id="5-BZjypIEKcRVEe4DaxC-74" value="" style="endArrow=none;html=1;rounded=0;" edge="1" parent="1">
          <mxGeometry width="50" height="50" relative="1" as="geometry">
            <mxPoint x="220" y="930" as="sourcePoint" />
            <mxPoint x="410" y="930" as="targetPoint" />
          </mxGeometry>
        </mxCell>
        <mxCell id="5-BZjypIEKcRVEe4DaxC-75" value="No Forward" style="edgeLabel;html=1;align=center;verticalAlign=middle;resizable=0;points=[];" vertex="1" connectable="0" parent="5-BZjypIEKcRVEe4DaxC-74">
          <mxGeometry x="0.0211" y="1" relative="1" as="geometry">
            <mxPoint as="offset" />
          </mxGeometry>
        </mxCell>
      </root>
    </mxGraphModel>
  </diagram>
</mxfile>
